<svg xmlns="http://www.w3.org/2000/svg" width="45" height="65" viewBox="0 0 45 65">
    <path fill="#F36167" fill-rule="evenodd" stroke="#F36167" stroke-width=".2" d="M22.5 16c-.516 0-.94.163-1.27.49-.332.327-.498.744-.498 1.252v25.27l-7.624-7.404c-.81-.871-1.639-.89-2.486-.055-.847.835-.829 1.652.055 2.45l10.608 10.453c.147.217.331.363.552.435.442.145.884.145 1.326 0 .221-.072.405-.218.552-.435l10.608-10.453c.884-.798.902-1.615.055-2.45-.847-.834-1.676-.816-2.486.055l-7.624 7.404v-25.27c0-.508-.166-.925-.497-1.252-.332-.327-.755-.49-1.271-.49z"/>
</svg>
