<svg xmlns="http://www.w3.org/2000/svg" width="15" height="15" viewBox="0 0 15 15">
    <path fill="#4E3BCE" fill-rule="nonzero" d="M7.5 15c4.16 0 7.5-3.34 7.5-7.5S11.66 0 7.5 0 0 3.34 0 7.5 3.34 15 7.5 15zM3.811 6.125l3.44-3.439a.413.413 0 0 1 .267-.115c.114 0 .19.039.267.115l3.44 3.44a.347.347 0 0 1 .114.267.347.347 0 0 1-.115.267l-.535.535a.37.37 0 0 1-.535 0L8.626 5.667c-.115-.115-.344-.039-.344.152v6.305c0 .23-.153.382-.382.382h-.765c-.229 0-.382-.152-.382-.382V5.781c0-.153-.19-.267-.344-.153L4.881 7.157a.37.37 0 0 1-.535 0l-.535-.535a.347.347 0 0 1-.115-.268c0-.076.039-.152.115-.229z"/>
</svg>
