<svg xmlns="http://www.w3.org/2000/svg" xmlns:xlink="http://www.w3.org/1999/xlink" width="22" height="22" viewBox="0 0 22 22">
    <defs>
        <circle id="a" cx="11" cy="11" r="11"/>
    </defs>
    <g fill="none" fill-rule="evenodd">
        <use fill="#4BCF51" xlink:href="#a"/>
        <path fill="#FFF" fill-rule="nonzero" d="M5.613 7.869c.379-.1.74-.23 1.12-.33.379-.1.74-.229 1.12-.329.106-.021.119-.068.097-.175-.173-.575-.33-1.12-.502-1.695-.022-.106-.01-.153.097-.175.35-.082.652-.177.984-.29.106-.022.123.008.128.085.156.545.329 1.12.485 1.665.017.03.034.06.039.136.272-.078.575-.173.847-.25.03-.018.025-.095.038-.142a18.3 18.3 0 0 1-.355-1.303c-.04-.136-.078-.272-.117-.409-.035-.06-.022-.106.055-.11.349-.083.68-.196 1.06-.295.03-.018.047.012.077-.005.134.438.25.847.368 1.256.056.166.112.332.138.515.022.107.07.12.176.098l1.24-.121c.4.007.806.09 1.186.268.526.291.83.75.987 1.296.1.379.152.745.052 1.12-.076.283-.245.54-.432.766-.03.017-.042.064-.102.098.171.021.324.012.495.032.512.062.94.252 1.299.6.249.293.425.668.525 1.047.121.485.179.928.1 1.41a2.135 2.135 0 0 1-.843 1.36c-.573.45-1.203.734-1.85.989-.106.022-.149.086-.127.192.156.545.33 1.12.485 1.665.039.137.056.166-.127.193-.302.095-.652.177-.954.273-.106.021-.124-.008-.128-.085a25.084 25.084 0 0 1-.473-1.712c-.034-.06-.021-.107-.098-.102a32.43 32.43 0 0 0-.847.251c.095.302.16.622.255.924.095.303.16.622.256.924.004.077.022.107-.085.129-.35.082-.681.195-1.013.307-.107.022-.124-.008-.129-.085a25.084 25.084 0 0 1-.472-1.712c-.017-.03-.004-.076-.039-.136-.788.217-1.576.433-2.393.667-.01-.153-.031-.26-.04-.413a17.17 17.17 0 0 0-.12-.963c-.022-.107.008-.124.098-.175.242-.061.515-.14.74-.23.273-.078.383-.3.292-.525-.49-1.742-.979-3.484-1.515-5.238-.078-.273-.382-.455-.701-.39-.32.066-.622.161-.895.24-.06.034-.106.021-.11-.056-.1-.379-.217-.788-.317-1.167-.068.158-.068.158-.055.112zm5.763 6.476c.03-.017.077-.005.077-.005.545-.155 1.137-.299 1.66-.561.375-.177.702-.366.961-.674.463-.505.271-1.387-.331-1.674-.287-.152-.61-.164-.935-.175-.708.012-1.402.254-2.066.478-.106.022-.089.052-.067.158.112.332.177.652.29.984.121.485.273.954.411 1.47zm.748-4.48c.06-.035.191-.15.293-.249a1.002 1.002 0 0 0-.173-1.606c-.304-.182-.675-.206-1.012-.17-.52.061-.988.213-1.503.351-.107.022-.12.07-.097.176.212.71.407 1.392.589 2.12.004.077.051.09.128.085.136-.039.243-.06.38-.1.48-.198.919-.332 1.395-.607z"/>
    </g>
</svg>
