<svg xmlns="http://www.w3.org/2000/svg" width="17" height="26" viewBox="0 0 17 26">
    <g fill="none" fill-rule="nonzero">
        <path fill="#8A92B2" d="M8.543.32v9.32c0 .04-.043.08-.085.08-.298.12-.553.24-.85.36-.383.16-.808.32-1.19.52l-1.403.6-1.147.48-1.403.6c-.382.16-.765.32-1.19.52-.297.12-.637.28-.935.4-.043 0-.043.04-.085 0H.212c.128-.2.256-.36.383-.56.68-1.08 1.403-2.16 2.083-3.24.722-1.16 1.487-2.32 2.21-3.48.68-1.08 1.36-2.16 2.04-3.2.51-.8 1.02-1.56 1.487-2.36.085 0 .085-.04.128-.04-.043 0 0 0 0 0z"/>
        <path fill="#454A75" d="M16.788 13.2c-.638.4-1.318.76-1.956 1.12-2.082 1.16-4.122 2.28-6.205 3.44-.042 0-.042.04-.085.04-.042 0-.042-.04-.042-.04v-.12-7.8-.12c0-.04.043-.04.085-.04.17.08.34.16.552.24.51.24 1.063.44 1.573.68.467.2.892.4 1.36.56.467.2.893.4 1.36.6.383.16.808.32 1.19.52.383.16.808.32 1.19.52.298.12.595.28.935.4 0-.04 0 0 .043 0z"/>
        <path fill="#8A92B2" d="M8.543 25.64s-.043 0 0 0c-.043 0-.043 0-.085-.04-.85-1.12-1.658-2.2-2.508-3.32L3.4 18.92c-.808-1.08-1.657-2.16-2.465-3.28l-.638-.84c0-.04-.042-.04-.042-.08.042 0 .042.04.085.04 1.147.64 2.338 1.28 3.485 1.92 1.317.76 2.678 1.48 3.995 2.24.213.12.467.24.68.36.043 0 .043.04.043.08v6.28z"/>
        <path fill="gray" d="M.255 13.2s.042 0 0 0c.042 0 .042 0 0 0 0 .04 0 .04 0 0z"/>
        <path fill="#62688F" d="M.297 13.24c0-.04 0-.04 0 0 .426-.2.85-.36 1.275-.56l1.658-.72c.425-.2.85-.36 1.275-.56.595-.28 1.232-.52 1.827-.8.426-.16.85-.36 1.276-.52.297-.12.595-.24.892-.4.043 0 .043-.04.085-.04V17.8c-.043.04-.043 0-.085 0-.127-.08-.255-.12-.34-.2L.383 13.28c-.043-.04-.086-.04-.086-.04zM16.745 14.72c0 .04 0 .04-.043.08-2.465 3.28-4.93 6.52-7.395 9.8-.255.36-.51.68-.764 1.04v-.04-.08-6.12-.12c.552-.32 1.105-.64 1.657-.92l6.503-3.6c0-.04.042-.04.042-.04z"/>
        <path fill="#62688F" d="M8.543 9.68V9.6.44.36l8.16 12.72c.042.04.085.08.085.12-.17-.08-.34-.16-.553-.24-.212-.08-.425-.2-.637-.28-.128-.04-.256-.12-.426-.16-.212-.08-.467-.2-.68-.28-.127-.04-.255-.12-.382-.16l-.893-.36c-.17-.08-.297-.12-.467-.2-.213-.08-.425-.2-.637-.28-.128-.04-.255-.12-.383-.16l-.893-.36c-.17-.08-.297-.12-.467-.2-.212-.08-.425-.2-.637-.28-.128-.08-.298-.12-.426-.2l-.764-.36z"/>
    </g>
</svg>
