<svg xmlns="http://www.w3.org/2000/svg" width="22" height="22" viewBox="0 0 22 22">
    <g fill="none" fill-rule="nonzero">
        <path fill="#C0C0C0" d="M11.069 21.695C5.019 21.662.172 16.89.206 10.966.206 5.01 5.122.236 11.137.271 17.188.305 22.035 5.11 22 11.034c-.069 5.923-4.95 10.695-10.931 10.661zM20.934 11c0-5.382-4.4-9.714-9.865-9.714-5.432 0-9.832 4.332-9.832 9.68 0 5.382 4.4 9.714 9.866 9.714 5.431 0 9.831-4.332 9.831-9.68z"/>
        <path fill="#C0C0C0" d="M19.456 11c-.069 4.57-3.815 8.258-8.422 8.225-4.675-.068-8.387-3.791-8.318-8.327.068-4.569 3.815-8.19 8.387-8.156 4.64.033 8.353 3.723 8.353 8.258zm-8.903 2.945v-.102c.24-.914.447-1.794.688-2.708.034-.067.103-.169.206-.203.24-.101.481-.203.722-.27.55-.136.86-.44.928-.982.034-.237.137-.474.206-.745-.584.237-1.1.44-1.65.643.378-1.455.722-2.809 1.1-4.23H9.625c-.206 0-.275.067-.344.27l-1.444 5.28a.479.479 0 0 1-.206.237c-.31.136-.653.237-.962.373-.069.034-.172.067-.172.101-.138.44-.275.914-.447 1.422a23.12 23.12 0 0 1 1.375-.542c-.31 1.185-.619 2.336-.928 3.486h8.869c.171 0 .24-.033.275-.203.068-.338.171-.677.275-.981.068-.237.103-.474.171-.745l-5.534-.101z"/>
        <path fill="#FFF" d="M10.553 13.945c1.856.033 3.678.067 5.534.135-.068.27-.137.508-.171.745-.104.338-.207.643-.275.981-.035.17-.104.203-.275.203H6.497c.31-1.184.619-2.301.928-3.486-.481.17-.894.339-1.375.542.138-.508.275-.948.447-1.422 0-.068.103-.101.172-.101.31-.136.653-.237.962-.373.103-.034.207-.135.207-.237l1.443-5.28c.035-.203.103-.27.344-.27h3.128c-.378 1.387-.722 2.775-1.1 4.23.55-.237 1.066-.44 1.65-.643-.069.271-.172.508-.206.745-.069.541-.378.846-.928.981-.24.068-.482.17-.722.271a.588.588 0 0 0-.206.203c-.241.914-.482 1.794-.688 2.708v.068z"/>
    </g>
</svg>
