<svg xmlns="http://www.w3.org/2000/svg" width="16" height="16" viewBox="0 0 13 15">
    <path fill="#83889C" fill-rule="nonzero" d="M11.19 7.292a.544.544 0 0 1-.05.768l-4.282 3.762a.54.54 0 0 1-.714 0L1.86 8.06a.545.545 0 0 1-.05-.769l.714-.814a.541.541 0 0 1 .764-.05L5.417 8.3V.543c0-.3.242-.543.541-.543h1.084c.299 0 .541.243.541.543V8.3l2.13-1.872a.541.541 0 0 1 .763.05l.714.815zm1.268 5.534c.3 0 .542.244.542.544v1.087c0 .3-.243.543-.542.543H.542A.543.543 0 0 1 0 14.457V13.37c0-.3.243-.544.542-.544h11.916z"/>
</svg>
