<svg xmlns="http://www.w3.org/2000/svg" width="16" height="16" viewBox="0 0 13 14">
    <path fill="#83889C" fill-rule="nonzero" d="M12.881 2.556a.406.406 0 0 1 0 .575l-2.437 2.437a.405.405 0 0 1-.694-.288V4.062H4.469a2.03 2.03 0 0 0-2.031 2.03.406.406 0 0 1-.407.407H.406A.406.406 0 0 1 0 6.092C0 3.624 2 1.624 4.47 1.624h5.28V.406a.406.406 0 0 1 .695-.287l2.437 2.437zm-.287 4.945c.224 0 .406.181.406.406 0 2.468-2 4.468-4.469 4.468h-5.28v1.218a.407.407 0 0 1-.695.288L.12 11.444a.406.406 0 0 1 0-.575l2.437-2.437a.407.407 0 0 1 .694.287v1.219h5.281a2.03 2.03 0 0 0 2.031-2.031c0-.225.182-.406.407-.406h1.625z"/>
</svg>
