<svg xmlns="http://www.w3.org/2000/svg" width="16" height="16" viewBox="0 0 13 15">
    <path fill="#83889C" fill-rule="nonzero" d="M1.81 7.708a.544.544 0 0 1 .05-.768l4.282-3.762a.54.54 0 0 1 .714 0L11.14 6.94a.545.545 0 0 1 .05.769l-.714.814a.541.541 0 0 1-.764.05L7.583 6.7v7.756c0 .3-.242.543-.541.543H5.958a.543.543 0 0 1-.541-.543V6.7l-2.13 1.872a.541.541 0 0 1-.763-.05l-.714-.815zM.542 2.174A.543.543 0 0 1 0 1.63V.543C0 .243.243 0 .542 0h11.916c.3 0 .542.243.542.543V1.63c0 .3-.243.544-.542.544H.542z"/>
</svg>
