<svg xmlns="http://www.w3.org/2000/svg" width="16" height="16" viewBox="0 0 15 11">
    <g fill="none" fill-rule="evenodd">
        <path fill="#83889C" fill-rule="nonzero" d="M.913 11A.911.911 0 0 1 0 10.092V.908C0 .407.41 0 .913 0H13.08c.504 0 .913.407.913.908v2.048H9.625a2.441 2.441 0 0 0-1.717.708 2.4 2.4 0 0 0-.712 1.708v.256a2.404 2.404 0 0 0 .712 1.708c.222.22.482.396.771.517.3.127.62.19.946.19h4.368v2.05c0 .5-.41.907-.913.907H.913zM15 4.545v1.91c0 .377-.306.681-.685.681h-4.69A1.512 1.512 0 0 1 8.11 5.628v-.256c0-.833.678-1.508 1.516-1.508h4.69c.38 0 .685.304.685.68zM9.873 6.3a.803.803 0 0 0 .807-.802.804.804 0 0 0-.807-.802.804.804 0 0 0-.806.802c0 .444.36.802.806.802z"/>
    </g>
</svg>
