<svg xmlns="http://www.w3.org/2000/svg" width="27" height="27" viewBox="0 0 27 27">
    <g fill="none" fill-rule="evenodd">
        <circle cx="13.5" cy="13.5" r="13.5" fill="#E8E8FA"/>
        <path fill="#4E3BCE" d="M13.5 21a7.35 7.35 0 0 1-2.92-.586 7.526 7.526 0 0 1-2.39-1.605 7.526 7.526 0 0 1-1.604-2.388A7.35 7.35 0 0 1 6 13.5a7.35 7.35 0 0 1 .586-2.92c.39-.914.925-1.71 1.605-2.39a7.526 7.526 0 0 1 2.388-1.604A7.35 7.35 0 0 1 13.5 6a7.35 7.35 0 0 1 2.92.586c.914.39 1.71.925 2.39 1.605a7.526 7.526 0 0 1 1.604 2.388A7.35 7.35 0 0 1 21 13.5a7.35 7.35 0 0 1-.586 2.92 7.526 7.526 0 0 1-1.605 2.39 7.526 7.526 0 0 1-2.388 1.604A7.35 7.35 0 0 1 13.5 21zm4.219-7.825a.624.624 0 0 0-.193-.456.624.624 0 0 0-.456-.193h-2.596V9.93a.624.624 0 0 0-.193-.456.624.624 0 0 0-.456-.193h-.65a.624.624 0 0 0-.456.193.624.624 0 0 0-.193.456v2.596H9.93a.624.624 0 0 0-.456.193.624.624 0 0 0-.193.456v.65c0 .175.064.327.193.456.128.128.28.193.456.193h2.596v2.596c0 .175.065.328.193.456.129.129.28.193.456.193h.65a.624.624 0 0 0 .456-.193.624.624 0 0 0 .193-.456v-2.596h2.596a.624.624 0 0 0 .456-.193.624.624 0 0 0 .193-.456v-.65z"/>
    </g>
</svg>
