<svg xmlns="http://www.w3.org/2000/svg" width="15" height="15" viewBox="0 0 15 15">
    <path fill="#4E3BCE" fill-rule="nonzero" d="M7.5 0C3.34 0 0 3.34 0 7.5S3.34 15 7.5 15 15 11.66 15 7.5 11.66 0 7.5 0zm3.689 8.875l-3.44 3.439a.413.413 0 0 1-.267.115.347.347 0 0 1-.267-.115l-3.44-3.44a.347.347 0 0 1-.114-.267c0-.114.038-.19.115-.267l.535-.535a.37.37 0 0 1 .535 0l1.528 1.528c.115.115.344.039.344-.152V2.876c0-.23.153-.382.382-.382h.765c.229 0 .382.152.382.382v6.343c0 .153.19.267.344.153l1.528-1.529a.37.37 0 0 1 .535 0l.535.535a.347.347 0 0 1 .115.268c0 .076-.039.152-.115.229z"/>
</svg>
