<svg xmlns="http://www.w3.org/2000/svg" width="45" height="65" viewBox="0 0 45 65">
    <path fill="#00CD9D" fill-rule="evenodd" stroke="#00CD9D" stroke-width=".2" d="M22.5 49c.516 0 .94-.163 1.27-.49.332-.327.498-.744.498-1.252v-25.27l7.624 7.404c.81.871 1.639.89 2.486.055.847-.835.829-1.652-.055-2.45L23.715 16.544a1.062 1.062 0 0 0-.552-.435 2.073 2.073 0 0 0-1.326 0 1.062 1.062 0 0 0-.552.435L10.677 26.997c-.884.798-.902 1.615-.055 2.45.847.834 1.676.816 2.486-.055l7.624-7.404v25.27c0 .508.166.925.497 1.252.332.327.755.49 1.271.49z"/>
</svg>
