<svg xmlns="http://www.w3.org/2000/svg" width="16" height="16" viewBox="0 0 16 12">
    <g fill="none" fill-rule="evenodd">
        <path fill="#83889C" fill-rule="nonzero" d="M14.154 0c-1.02 0-1.846.806-1.846 1.8 0 .435.164.827.428 1.14l-1.907 3.096a1.865 1.865 0 0 0-1.647.47l-1.82-.888c.01-.073.023-.143.023-.218 0-.994-.827-1.8-1.847-1.8-1.019 0-1.846.806-1.846 1.8 0 .37.115.711.31.997L2.393 8.49a1.874 1.874 0 0 0-.547-.089C.826 8.4 0 9.206 0 10.2S.827 12 1.846 12c1.02 0 1.846-.806 1.846-1.8 0-.37-.114-.711-.31-.997l1.61-2.092c.174.053.355.089.546.089.497 0 .947-.195 1.28-.506l1.82.888c-.01.073-.023.143-.023.218 0 .994.827 1.8 1.847 1.8 1.019 0 1.846-.806 1.846-1.8 0-.435-.165-.827-.428-1.14l1.906-3.096a1.9 1.9 0 0 0 .368.036C15.174 3.6 16 2.794 16 1.8S15.173 0 14.154 0z"/>
    </g>
</svg>
