<svg xmlns="http://www.w3.org/2000/svg" width="16" height="16" viewBox="0 0 15 15">
    <g fill="none" fill-rule="evenodd">
        <path fill="#83889C" fill-rule="nonzero" d="M14.451 6.408l-1.486-.248a5.597 5.597 0 0 0-.47-1.257l.951-1.18a.656.656 0 0 0-.02-.848l-.591-.665a.656.656 0 0 0-.84-.12l-1.271.799a5.59 5.59 0 0 0-1.875-.847L8.6.548A.655.655 0 0 0 7.953 0h-.89a.654.654 0 0 0-.647.548l-.25 1.495a5.588 5.588 0 0 0-1.577.655L3.38 1.836a.657.657 0 0 0-.845.07l-.63.63a.656.656 0 0 0-.069.845l.865 1.21a5.603 5.603 0 0 0-.65 1.566l-1.503.25A.656.656 0 0 0 0 7.056v.89c0 .321.233.595.548.647l1.503.251c.113.46.278.9.497 1.308l-.947 1.173a.656.656 0 0 0 .02.848l.59.666c.215.24.57.29.841.12l1.29-.81a5.583 5.583 0 0 0 1.824.81l.25 1.494a.654.654 0 0 0 .646.548h.891a.655.655 0 0 0 .647-.548l.25-1.495a5.58 5.58 0 0 0 1.558-.644l1.26.899c.26.187.617.157.844-.07l.63-.63a.654.654 0 0 0 .069-.845l-.897-1.256a5.575 5.575 0 0 0 .652-1.57l1.486-.249A.655.655 0 0 0 15 7.945v-.89a.656.656 0 0 0-.549-.647zm-6.927 3.905a2.813 2.813 0 1 1 0-5.627 2.813 2.813 0 0 1 0 5.627z"/>
    </g>
</svg>
