<svg xmlns="http://www.w3.org/2000/svg" width="16" height="16" viewBox="0 0 15 15">
    <g fill="none" fill-rule="evenodd">
        <path fill="#4E3BCE" fill-rule="nonzero" d="M14.809 8.334l-.233-.31a.96.96 0 0 1-.009-1.14l.226-.312a.964.964 0 0 0-.344-1.425l-.347-.182a.97.97 0 0 1-.511-1.024l.065-.38a.982.982 0 0 0-.942-1.138l-.39-.015a.99.99 0 0 1-.915-.705l-.108-.37A1.002 1.002 0 0 0 9.95.706l-.36.151A1.01 1.01 0 0 1 8.453.612l-.26-.285a1.01 1.01 0 0 0-1.497.009l-.257.289a1.009 1.009 0 0 1-1.131.26L4.945.74a1 1 0 0 0-1.342.647l-.102.37a.992.992 0 0 1-.905.717l-.39.022a.982.982 0 0 0-.924 1.15l.072.377a.971.971 0 0 1-.496 1.03l-.344.185A.967.967 0 0 0 .19 6.67l.233.31a.96.96 0 0 1 .01 1.139l-.227.313A.964.964 0 0 0 .55 9.855l.347.183a.97.97 0 0 1 .511 1.023l-.065.38c-.099.58.341 1.115.942 1.139l.39.015a.99.99 0 0 1 .915.705l.108.37c.168.565.8.857 1.351.626l.36-.152a1.01 1.01 0 0 1 1.137.246l.26.286c.4.437 1.1.431 1.494-.012l.257-.289a1.009 1.009 0 0 1 1.131-.261l.363.146a1 1 0 0 0 1.342-.647l.102-.37a.992.992 0 0 1 .905-.718l.39-.021a.982.982 0 0 0 .924-1.151l-.071-.377a.971.971 0 0 1 .495-1.03l.344-.185a.962.962 0 0 0 .326-1.427zM9.345 9.992a2.098 2.098 0 0 1-1.072.674c-.186.049-.27.146-.26.334.01.186 0 .374 0 .56 0 .166-.087.254-.254.258a10.33 10.33 0 0 1-.614 0c-.18-.004-.263-.104-.266-.274-.003-.137-.003-.273-.003-.407-.003-.3-.013-.313-.307-.358-.378-.058-.747-.143-1.09-.307-.27-.128-.298-.194-.22-.474.058-.206.114-.416.182-.62.077-.236.142-.267.366-.154a3.59 3.59 0 0 0 1.211.355c.273.033.543.006.797-.103.474-.204.548-.741.148-1.063a1.961 1.961 0 0 0-.452-.262c-.415-.179-.85-.316-1.24-.546-.635-.374-1.038-.884-.991-1.644.052-.856.548-1.39 1.348-1.676.331-.119.331-.113.334-.453V3.49c.007-.255.05-.3.31-.307.08-.003.161 0 .242 0 .552 0 .552 0 .555.54.003.383 0 .387.39.444.298.046.583.134.859.252.151.067.21.17.164.328-.068.234-.133.471-.21.702-.072.219-.143.252-.36.149a2.797 2.797 0 0 0-1.36-.264 1.056 1.056 0 0 0-.363.073c-.413.176-.48.622-.127.896.176.14.38.24.591.325.366.148.732.288 1.079.476 1.094.605 1.391 1.963.613 2.889z"/>
    </g>
</svg>
