<svg xmlns="http://www.w3.org/2000/svg" width="45" height="45" viewBox="0 0 45 45">
    <path fill="#F5B300" fill-rule="nonzero" d="M22.29 44.446C9.98 44.446 0 34.621 0 22.5 0 10.38 9.98.554 22.29.554c12.309 0 22.288 9.825 22.288 21.946 0 12.12-9.979 21.946-22.289 21.946zm-6.048-33.161c-.07.069-.07.069.211-.139-.21.762-.422 1.592-.633 2.354-.07.138 0 .208.14.208.563.138 1.196.277 1.83.484.632.208.983.831.843 1.385-.844 3.6-1.758 7.13-2.672 10.661-.07.485-.492.762-1.055.624a12.41 12.41 0 0 1-1.547-.347c-.21 0-.28 0-.351.208-.211.554-.492 1.177-.774 1.8-.14.277-.21.485-.351.762 1.687.415 3.305.83 4.922 1.246 0 .138-.07.207-.07.277-.352 1.107-.633 2.284-.915 3.461-.07.139-.07.208.14.277.704.139 1.407.277 2.11.485.211.069.211 0 .282-.139.14-.623.351-1.246.492-1.869.14-.623.351-1.246.492-1.87.633.14 1.195.278 1.758.416.14.07.07.139.07.277-.352 1.108-.633 2.285-.914 3.462-.07.138-.07.207.14.277.633.138 1.337.346 1.97.484.35.139.35.07.421-.207.282-1.108.563-2.285.844-3.393.07-.207.21-.277.422-.207 1.406.207 2.812.346 4.289.138 1.125-.138 2.11-.623 2.883-1.523.633-.762.984-1.592 1.265-2.562.211-.761.282-1.592.141-2.353-.281-.97-.844-1.731-1.688-2.354-.28-.208-.562-.346-.843-.554.14 0 .21-.07.281-.07.563-.207 1.125-.484 1.547-.9.562-.553.844-1.246 1.055-2.007.28-1.108.21-2.215-.422-3.254a5.93 5.93 0 0 0-1.828-1.661l-2.32-1.039c-.212-.07-.282-.138-.212-.346.14-.346.211-.692.282-1.039.21-.83.421-1.661.632-2.561-.07 0-.07-.07-.14-.07-.774-.207-1.477-.345-2.18-.553-.14-.07-.21 0-.21.138l-.212.831a36.4 36.4 0 0 0-.703 2.63c-.07.07-.14.209-.21.209-.563-.139-1.196-.277-1.759-.416.07-.138.07-.208.07-.277.282-1.107.563-2.284.844-3.392.07-.139.07-.208-.14-.277a21.75 21.75 0 0 1-2.04-.485c-.21-.069-.28 0-.35.208-.282 1.177-.563 2.285-.845 3.462-.07.207-.14.277-.351.207-.774-.207-1.547-.346-2.32-.554-.774-.207-1.547-.346-2.32-.553zm3.586 17.1c.281-1.039.492-2.008.774-2.977.14-.693.351-1.316.492-2.008.07-.208.07-.277.281-.208 1.406.277 2.883.554 4.148 1.246.563.347 1.125.693 1.477 1.247.773 1.107.21 2.838-1.125 3.253-.773.277-1.547.277-2.39.208-1.196-.07-2.391-.415-3.516-.692 0 0-.07-.07-.14-.07zm5.906-7.062c-1.125 0-2.039-.208-3.093-.346-.282-.07-.493-.139-.774-.208-.14-.069-.21-.138-.14-.277a96.508 96.508 0 0 0 1.125-4.292c.07-.208.14-.277.351-.208 1.055.277 2.04.485 3.024.9.632.277 1.265.693 1.617 1.316.703 1.177 0 2.7-1.336 2.977-.281.069-.633.138-.774.138z"/>
</svg>
