<?xml version="1.0" encoding="UTF-8"?>
<svg width="2000px" height="2000px" viewBox="0 0 2000 2000" version="1.1" xmlns="http://www.w3.org/2000/svg" xmlns:xlink="http://www.w3.org/1999/xlink">
    <!-- Generator: Sketch 50.2 (55047) - http://www.bohemiancoding.com/sketch -->
    <title>omisego logo</title>
    <desc>Created with Sketch.</desc>
    <defs></defs>
    <g id="Page-1" stroke="none" stroke-width="1" fill="none" fill-rule="evenodd">
        <g id="omisego-logo" fill-rule="nonzero">
            <circle id="Oval" fill="#1A53F0" cx="1000" cy="1000" r="1000"></circle>
            <path d="M803.2,1135.44 C675.49,1135.44 571.96,1239.27 571.96,1367.35 C571.96,1495.43 675.5,1599.26 803.21,1599.26 C930.92,1599.26 1034.46,1495.43 1034.46,1367.35 C1034.46,1239.27 930.93,1135.44 803.21,1135.44 L803.2,1135.44 Z M803.2,1529.11 C714.2,1529.11 641.99,1456.73 641.99,1367.43 C641.99,1278.13 714.17,1205.75 803.2,1205.75 C892.23,1205.75 964.42,1278.13 964.42,1367.43 C964.27,1456.65 892.18,1529 803.2,1529.11 Z M1297.06,640.75 C1169.35,640.75 1065.81,744.58 1065.81,872.66 C1065.81,1000.74 1169.35,1104.57 1297.06,1104.57 C1424.77,1104.57 1528.31,1000.74 1528.31,872.66 C1528.31,744.58 1424.79,640.74 1297.07,640.74 L1297.06,640.75 Z M1297.06,1034.42 C1208.06,1034.42 1135.85,962.04 1135.85,872.74 C1135.85,783.44 1208,711.06 1297.07,711.06 C1386.14,711.06 1458.29,783.44 1458.29,872.74 C1458.14,962 1386,1034.26 1297.07,1034.41 L1297.06,1034.42 Z M803.2,640.74 C693.11,640.67 598.2,718.43 576.32,826.64 C554.44,934.85 611.63,1043.53 713,1086.5 C814.669069,1129.20364 932.348424,1094.3919 994.423421,1003.24973 C1056.49842,912.107564 1045.79215,789.855107 968.82,710.89 L1034.39,710.89 L1034.39,640.74 L803.2,640.74 Z M964.43,872.65 C964.43,961.94 892.25,1034.33 803.21,1034.33 C714.17,1034.33 642,961.94 642,872.65 C642,783.36 714.17,711 803.2,711 C892.23,711 964.35,783.41 964.51,872.68 L964.43,872.68 L964.43,872.65 Z" id="Shape" fill="#FFFFFF"></path>
        </g>
    </g>
</svg>