<svg xmlns="http://www.w3.org/2000/svg" width="22" height="22" viewBox="0 0 22 22">
    <g fill="none" fill-rule="nonzero">
        <ellipse cx="11" cy="10.966" fill="#1276A7" rx="10.897" ry="10.729"/>
        <path fill="#FEFEFE" d="M13.99 12.117a3.528 3.528 0 0 0-.996-.135c-.31.033-.653-.102-.825-.373l-.103-.135a.856.856 0 0 1 0-.982l.103-.169a.918.918 0 0 1 .756-.372 2.33 2.33 0 0 0 1.134-.271c.929-.474 1.547-1.388 1.513-2.403-.034-1.455-1.272-2.606-2.784-2.539a2.66 2.66 0 0 0-2.476 2.336c-.068.677.138 1.286.482 1.794a.91.91 0 0 1 0 1.015l-.035.034a.901.901 0 0 1-.722.372h-.171a.87.87 0 0 1-.791-.507 2.62 2.62 0 0 0-2.44-1.422c-1.376.034-2.51 1.15-2.544 2.505-.07 1.489 1.134 2.707 2.646 2.707 1.032 0 1.925-.575 2.338-1.421a.87.87 0 0 1 .79-.508h.138c.31 0 .585.135.722.372l.172.237c.206.271.172.643 0 .914a2.398 2.398 0 0 0-.378 1.625c.103 1.218 1.134 2.2 2.337 2.335 1.685.17 3.06-1.218 2.922-2.843-.069-.981-.79-1.861-1.787-2.166z"/>
    </g>
</svg>
