<svg xmlns="http://www.w3.org/2000/svg" width="22" height="22" viewBox="0 0 22 22">
    <path fill="#6DDFFF" fill-rule="nonzero" d="M12.658 6.844a1.489 1.489 0 1 0 0 2.977 1.489 1.489 0 0 0 0-2.977zM10.982 0c6.065 0 10.982 4.917 10.982 10.982 0 6.065-4.917 10.982-10.982 10.982a10.93 10.93 0 0 1-5.915-1.728.213.213 0 0 0 .034-.037l1.203-1.677a.219.219 0 0 0-.356-.255l-1.203 1.677a.222.222 0 0 0-.028.058c-.156-.109-.31-.221-.459-.337l1.524-2.14a.219.219 0 1 0-.356-.254L3.917 19.39A10.958 10.958 0 0 1 0 10.982C0 4.917 4.917 0 10.982 0zM8.32 13.054c.267.2.55.398.788.57.314.228.689.52 1.035.764l-.014.02c-.661.894-1.603 1.319-2.105.948-.502-.37-.373-1.396.288-2.29l.008-.012zm6.53-2.242c.693-.839 1.3-1.957 1.3-3.415 0-1.459-.498-2.868-.498-2.868s-1.86-.128-3.414.71c-1.556.84-2.145 1.909-2.437 2.4-.292.493-.9 1.544-.9 1.544s-1.33-.024-2.381.56c-1.051.582-1.695 1.676-1.695 1.676s.699-.2 1.367-.182c.668.018 1.337.298 1.337.298s-.158.236-.128.583c.013.152.217.369.497.604a5.394 5.394 0 0 0-.13.175c-.997 1.41-1.225 2.964-.508 3.472.717.507 2.107-.225 3.105-1.635l.093-.135c.254.16.472.266.607.26.358-.019.668-.396.668-.396s.684.866.857 1.304c.173.437.237 1.22.237 1.22s.766-.902 1.007-2.234c.242-1.333-.35-2.276-.35-2.276s.674-.827 1.366-1.665z"/>
</svg>
