<svg xmlns="http://www.w3.org/2000/svg" width="22" height="22" viewBox="0 0 22 22">
    <g fill="none" fill-rule="nonzero">
        <ellipse cx="11.069" cy="10.966" fill="#00A478" rx="10.897" ry="10.729"/>
        <path fill="#FFF" d="M9.831 9.95V7.21H6.153V4.805h10.278v2.437h-3.678v2.708z"/>
        <path fill="#FFF" d="M11.206 8.868c3.85 0 5.844 1.049 6.085 1.387-.241.339-2.2.847-6.085.847-3.85 0-5.843-.508-6.084-.847.24-.372 2.234-1.387 6.084-1.387zm0-.271c-3.678 0-6.634.745-6.634 1.658 0 .914 2.956 1.659 6.634 1.659 3.678 0 6.635-.745 6.635-1.659 0-.913-2.957-1.658-6.635-1.658z"/>
        <g fill="#FFF">
            <path d="M12.753 10.797V8.902a21.616 21.616 0 0 0-1.512-.068c-.482 0-.928 0-1.375.034v1.895c.412 0 .893.034 1.375.034.515.034 1.03.034 1.512 0zM11.206 11.914c-.481 0-.928 0-1.375-.034v5.043h2.888v-5.077c-.481.034-.997.068-1.513.068z"/>
        </g>
    </g>
</svg>
