<svg xmlns="http://www.w3.org/2000/svg" width="125" height="26" viewBox="0 0 125 26">
    <g fill="none" fill-rule="nonzero">
        <path fill="#4E3BCE" d="M13.59 17.456a5.077 5.077 0 0 1-5.416-2.048 5.121 5.121 0 0 1 0-5.81 5.077 5.077 0 0 1 5.416-2.049l2.168-3.107 2.116-3.035a12.324 12.324 0 0 0-15.14 3.317 12.436 12.436 0 0 0 0 15.555 12.324 12.324 0 0 0 15.14 3.317l-2.116-3.035-2.168-3.105z"/>
        <path fill="#4E3BCE" d="M20.847 3.502l-2.118 3.035-2.167 3.108a5.125 5.125 0 0 1 0 5.722l2.167 3.108 2.118 3.028a12.421 12.421 0 0 0 3.856-9c0-3.405-1.394-6.66-3.856-9z"/>
        <path fill="#FFF" d="M12.353 7.397c.418 0 .834.05 1.239.152l2.167-3.107A8.7 8.7 0 0 0 5.453 7.154a8.779 8.779 0 0 0 0 10.694 8.7 8.7 0 0 0 10.306 2.713l-2.167-3.108a5.076 5.076 0 0 1-5.166-1.714 5.121 5.121 0 0 1-.667-5.42 5.085 5.085 0 0 1 4.594-2.925v.003zM18.732 6.537l-2.167 3.108a5.125 5.125 0 0 1 0 5.722l2.167 3.108a8.773 8.773 0 0 0 0-11.931v-.007z" opacity=".3"/>
        <path fill="#010101" d="M44.446 15.885c-.295.915-1.479 3.625-5.099 3.625a5.595 5.595 0 0 1-3.942-1.568c-1.133-1.11-1.735-2.666-1.735-4.498 0-4.219 2.917-6.14 5.627-6.14 3.587 0 4.689 2.454 5.003 3.57l2.971-.942c-1.095-4.185-4.833-5.678-7.974-5.678a8.851 8.851 0 0 0-6.213 2.486c-1.738 1.69-2.696 4.07-2.696 6.701 0 5.311 3.768 9.166 8.958 9.166 4.791 0 7.324-3.128 8.048-5.826l-2.948-.896zM55.034 9.737c-3.664 0-6.323 2.707-6.323 6.437 0 1.796.643 3.436 1.81 4.617 1.167 1.18 2.763 1.82 4.513 1.82s3.354-.647 4.514-1.82c1.16-1.174 1.81-2.82 1.81-4.617 0-3.732-2.66-6.437-6.324-6.437zm2.292 9.194a3.182 3.182 0 0 1-2.292.933c-1.586 0-3.295-1.155-3.295-3.692 0-1.14.347-2.092 1.003-2.759a3.28 3.28 0 0 1 4.582 0c.655.666 1 1.62 1 2.759 0 1.138-.343 2.092-.998 2.757v.002zM64.47 3.95a1.91 1.91 0 0 0-1.905 1.917 1.91 1.91 0 0 0 1.905 1.916 1.91 1.91 0 0 0 1.905-1.916 1.91 1.91 0 0 0-1.905-1.916zm-1.503 6.164v12.12h3.034v-12.12h-3.034zM75.082 9.786c-1.153 0-2.66.471-3.432 1.792l-.288.492v-1.956h-2.93v12.12h3.031v-6.997c0-1.633.99-2.731 2.464-2.731 1.55 0 2.44.958 2.44 2.63v7.093h3.03v-7.674c0-2.987-1.613-4.77-4.315-4.77zM88.64 15.171l4.786-5.057h-3.94l-4.49 4.861V4.253h-3.03V22.23h3.03v-3.19l1.554-1.648 3.325 4.838h3.713zM94.87 4.253V22.23h3.03V4.253zM110.428 20.415v-6.112c0-1.373-.508-4.567-5.218-4.567-2.296 0-4.785 1.31-5.127 3.814l2.66.567c.158-.972.89-1.99 2.493-1.99 1.36 0 2.238.696 2.238 1.772 0 .587-.357.932-1.061 1.036l-3.036.456c-2.227.328-3.557 1.677-3.557 3.61 0 2.327 2.105 3.583 4.088 3.583 2.071 0 3.088-1.11 3.51-1.773l.285-.447v.531c.002.447.037.893.103 1.334h2.755a14.928 14.928 0 0 1-.133-1.814zm-2.954-3.056c0 2.64-1.795 3.035-2.866 3.035-1.21 0-1.761-.829-1.761-1.595 0-.933.606-1.564 1.664-1.72l2.963-.457v.737zM123.523 11.63a4.881 4.881 0 0 0-1.783-1.338 5.704 5.704 0 0 0-2.3-.451c-1.97 0-3.201.925-3.657 1.716l-.289.5v-1.943h-2.93v15.879h3.031v-5.3l.28.389c.245.34 1.224 1.45 3.44 1.45 3.337 0 5.67-2.627 5.67-6.387-.005-1.82-.508-3.381-1.462-4.514zm-4.736 8.208c-1.909 0-3.242-1.507-3.242-3.666s1.329-3.638 3.238-3.638S122 14.03 122 16.174c0 2.19-1.294 3.664-3.218 3.664h.004z"/>
    </g>
</svg>
